<svg width="313" height="45" viewBox="0 0 313 45" fill="none" xmlns="http://www.w3.org/2000/svg">
<path d="M7.34401 6.432V16.056H19.488V21.024H7.34401V30.84H22.752V36H0.864014V1.296H22.752V6.432H7.34401Z" fill="#141414"/>
<path d="M42.1496 17.664C41.4776 16.848 40.7416 16.272 39.9416 15.936C39.1576 15.6 38.3096 15.432 37.3976 15.432C36.5016 15.432 35.6936 15.6 34.9736 15.936C34.2536 16.272 33.6376 16.784 33.1256 17.472C32.6136 18.144 32.2216 19.008 31.9496 20.064C31.6776 21.104 31.5416 22.336 31.5416 23.76C31.5416 25.2 31.6536 26.424 31.8776 27.432C32.1176 28.424 32.4536 29.24 32.8856 29.88C33.3176 30.504 33.8456 30.96 34.4696 31.248C35.0936 31.52 35.7896 31.656 36.5576 31.656C37.7896 31.656 38.8376 31.4 39.7016 30.888C40.5656 30.376 41.3816 29.648 42.1496 28.704V17.664ZM48.0776 0.335999V36H44.4536C43.6696 36 43.1736 35.64 42.9656 34.92L42.4616 32.544C41.4696 33.68 40.3256 34.6 39.0296 35.304C37.7496 36.008 36.2536 36.36 34.5416 36.36C33.1976 36.36 31.9656 36.08 30.8456 35.52C29.7256 34.96 28.7576 34.152 27.9416 33.096C27.1416 32.024 26.5176 30.704 26.0696 29.136C25.6376 27.568 25.4216 25.776 25.4216 23.76C25.4216 21.936 25.6696 20.24 26.1656 18.672C26.6616 17.104 27.3736 15.744 28.3016 14.592C29.2296 13.44 30.3416 12.544 31.6376 11.904C32.9336 11.248 34.3896 10.92 36.0056 10.92C37.3816 10.92 38.5576 11.136 39.5336 11.568C40.5096 12 41.3816 12.584 42.1496 13.32V0.335999H48.0776Z" fill="#141414"/>
<path d="M75.144 11.376V36H71.52C70.736 36 70.24 35.64 70.032 34.92L69.624 32.952C68.616 33.976 67.504 34.808 66.288 35.448C65.072 36.072 63.64 36.384 61.992 36.384C60.648 36.384 59.456 36.16 58.416 35.712C57.392 35.248 56.528 34.6 55.824 33.768C55.12 32.936 54.584 31.952 54.216 30.816C53.864 29.664 53.688 28.4 53.688 27.024V11.376H59.616V27.024C59.616 28.528 59.96 29.696 60.648 30.528C61.352 31.344 62.4 31.752 63.792 31.752C64.816 31.752 65.776 31.528 66.672 31.08C67.568 30.616 68.416 29.984 69.216 29.184V11.376H75.144Z" fill="#141414"/>
<path d="M117.462 27.816C117.814 27.816 118.126 27.952 118.398 28.224L120.942 30.984C119.534 32.728 117.798 34.064 115.734 34.992C113.686 35.92 111.222 36.384 108.342 36.384C105.766 36.384 103.446 35.944 101.382 35.064C99.3336 34.184 97.5816 32.96 96.1256 31.392C94.6696 29.824 93.5496 27.952 92.7656 25.776C91.9976 23.6 91.6136 21.224 91.6136 18.648C91.6136 16.04 92.0296 13.656 92.8616 11.496C93.6936 9.32 94.8616 7.448 96.3656 5.88C97.8856 4.312 99.6936 3.096 101.79 2.232C103.886 1.352 106.206 0.912 108.75 0.912C111.278 0.912 113.518 1.328 115.47 2.16C117.438 2.992 119.11 4.08 120.486 5.424L118.326 8.424C118.198 8.616 118.03 8.784 117.822 8.928C117.63 9.072 117.358 9.144 117.006 9.144C116.766 9.144 116.518 9.08 116.262 8.952C116.006 8.808 115.726 8.64 115.422 8.448C115.118 8.24 114.766 8.016 114.366 7.776C113.966 7.536 113.502 7.32 112.974 7.128C112.446 6.92 111.83 6.752 111.126 6.624C110.438 6.48 109.638 6.408 108.726 6.408C107.174 6.408 105.75 6.688 104.454 7.248C103.174 7.792 102.07 8.592 101.142 9.648C100.214 10.688 99.4936 11.968 98.9816 13.488C98.4696 14.992 98.2136 16.712 98.2136 18.648C98.2136 20.6 98.4856 22.336 99.0296 23.856C99.5896 25.376 100.342 26.656 101.286 27.696C102.23 28.736 103.342 29.536 104.622 30.096C105.902 30.64 107.278 30.912 108.75 30.912C109.63 30.912 110.422 30.864 111.126 30.768C111.846 30.672 112.502 30.52 113.094 30.312C113.702 30.104 114.27 29.84 114.798 29.52C115.342 29.184 115.878 28.776 116.406 28.296C116.566 28.152 116.734 28.04 116.91 27.96C117.086 27.864 117.27 27.816 117.462 27.816Z" fill="#141414"/>
<path d="M137.436 25.488C135.724 25.568 134.284 25.72 133.116 25.944C131.948 26.152 131.012 26.424 130.308 26.76C129.604 27.096 129.1 27.488 128.796 27.936C128.492 28.384 128.34 28.872 128.34 29.4C128.34 30.44 128.644 31.184 129.252 31.632C129.876 32.08 130.684 32.304 131.676 32.304C132.892 32.304 133.94 32.088 134.82 31.656C135.716 31.208 136.588 30.536 137.436 29.64V25.488ZM123.852 14.808C126.684 12.216 130.092 10.92 134.076 10.92C135.516 10.92 136.804 11.16 137.94 11.64C139.076 12.104 140.036 12.76 140.82 13.608C141.604 14.44 142.196 15.44 142.596 16.608C143.012 17.776 143.22 19.056 143.22 20.448V36H140.532C139.972 36 139.54 35.92 139.236 35.76C138.932 35.584 138.692 35.24 138.516 34.728L137.988 32.952C137.364 33.512 136.756 34.008 136.164 34.44C135.572 34.856 134.956 35.208 134.316 35.496C133.676 35.784 132.988 36 132.252 36.144C131.532 36.304 130.732 36.384 129.852 36.384C128.812 36.384 127.852 36.248 126.972 35.976C126.092 35.688 125.332 35.264 124.692 34.704C124.052 34.144 123.556 33.448 123.204 32.616C122.852 31.784 122.676 30.816 122.676 29.712C122.676 29.088 122.78 28.472 122.988 27.864C123.196 27.24 123.532 26.648 123.996 26.088C124.476 25.528 125.092 25 125.844 24.504C126.596 24.008 127.516 23.576 128.604 23.208C129.708 22.84 130.988 22.544 132.444 22.32C133.9 22.08 135.564 21.936 137.436 21.888V20.448C137.436 18.8 137.084 17.584 136.38 16.8C135.676 16 134.66 15.6 133.332 15.6C132.372 15.6 131.572 15.712 130.932 15.936C130.308 16.16 129.756 16.416 129.276 16.704C128.796 16.976 128.356 17.224 127.956 17.448C127.572 17.672 127.14 17.784 126.66 17.784C126.244 17.784 125.892 17.68 125.604 17.472C125.316 17.248 125.084 16.992 124.908 16.704L123.852 14.808Z" fill="#141414"/>
<path d="M148.803 36V11.376H152.427C153.195 11.376 153.699 11.736 153.939 12.456L154.323 14.28C154.755 13.8 155.203 13.36 155.667 12.96C156.147 12.56 156.651 12.216 157.179 11.928C157.723 11.64 158.299 11.416 158.907 11.256C159.531 11.08 160.211 10.992 160.947 10.992C162.499 10.992 163.771 11.416 164.763 12.264C165.771 13.096 166.523 14.208 167.019 15.6C167.403 14.784 167.883 14.088 168.459 13.512C169.035 12.92 169.667 12.44 170.355 12.072C171.043 11.704 171.771 11.432 172.539 11.256C173.323 11.08 174.107 10.992 174.891 10.992C176.251 10.992 177.459 11.2 178.515 11.616C179.571 12.032 180.459 12.64 181.179 13.44C181.899 14.24 182.443 15.216 182.811 16.368C183.195 17.52 183.387 18.84 183.387 20.328V36H177.459V20.328C177.459 18.76 177.115 17.584 176.427 16.8C175.739 16 174.731 15.6 173.403 15.6C172.795 15.6 172.227 15.704 171.699 15.912C171.187 16.12 170.731 16.424 170.331 16.824C169.947 17.208 169.643 17.696 169.419 18.288C169.195 18.88 169.083 19.56 169.083 20.328V36H163.131V20.328C163.131 18.68 162.795 17.48 162.123 16.728C161.467 15.976 160.499 15.6 159.219 15.6C158.355 15.6 157.547 15.816 156.795 16.248C156.059 16.664 155.371 17.24 154.731 17.976V36H148.803Z" fill="#141414"/>
<path d="M202.03 25.488C200.318 25.568 198.878 25.72 197.71 25.944C196.542 26.152 195.606 26.424 194.902 26.76C194.198 27.096 193.694 27.488 193.39 27.936C193.086 28.384 192.934 28.872 192.934 29.4C192.934 30.44 193.238 31.184 193.846 31.632C194.47 32.08 195.278 32.304 196.27 32.304C197.486 32.304 198.534 32.088 199.414 31.656C200.31 31.208 201.182 30.536 202.03 29.64V25.488ZM188.446 14.808C191.278 12.216 194.686 10.92 198.67 10.92C200.11 10.92 201.398 11.16 202.534 11.64C203.67 12.104 204.63 12.76 205.414 13.608C206.198 14.44 206.79 15.44 207.19 16.608C207.606 17.776 207.814 19.056 207.814 20.448V36H205.126C204.566 36 204.134 35.92 203.83 35.76C203.526 35.584 203.286 35.24 203.11 34.728L202.582 32.952C201.958 33.512 201.35 34.008 200.758 34.44C200.166 34.856 199.55 35.208 198.91 35.496C198.27 35.784 197.582 36 196.846 36.144C196.126 36.304 195.326 36.384 194.446 36.384C193.406 36.384 192.446 36.248 191.566 35.976C190.686 35.688 189.926 35.264 189.286 34.704C188.646 34.144 188.15 33.448 187.798 32.616C187.446 31.784 187.27 30.816 187.27 29.712C187.27 29.088 187.374 28.472 187.582 27.864C187.79 27.24 188.126 26.648 188.59 26.088C189.07 25.528 189.686 25 190.438 24.504C191.19 24.008 192.11 23.576 193.198 23.208C194.302 22.84 195.582 22.544 197.038 22.32C198.494 22.08 200.158 21.936 202.03 21.888V20.448C202.03 18.8 201.678 17.584 200.974 16.8C200.27 16 199.254 15.6 197.926 15.6C196.966 15.6 196.166 15.712 195.526 15.936C194.902 16.16 194.35 16.416 193.87 16.704C193.39 16.976 192.95 17.224 192.55 17.448C192.166 17.672 191.734 17.784 191.254 17.784C190.838 17.784 190.486 17.68 190.198 17.472C189.91 17.248 189.678 16.992 189.502 16.704L188.446 14.808Z" fill="#141414"/>
<path d="M218.989 15.648C219.757 14.176 220.669 13.024 221.725 12.192C222.781 11.344 224.029 10.92 225.469 10.92C226.605 10.92 227.517 11.168 228.205 11.664L227.821 16.104C227.741 16.392 227.621 16.6 227.461 16.728C227.317 16.84 227.117 16.896 226.861 16.896C226.621 16.896 226.261 16.856 225.781 16.776C225.317 16.696 224.861 16.656 224.413 16.656C223.757 16.656 223.173 16.752 222.661 16.944C222.149 17.136 221.685 17.416 221.269 17.784C220.869 18.136 220.509 18.568 220.189 19.08C219.885 19.592 219.597 20.176 219.325 20.832V36H213.397V11.376H216.877C217.485 11.376 217.909 11.488 218.149 11.712C218.389 11.92 218.549 12.304 218.629 12.864L218.989 15.648Z" fill="#141414"/>
<path d="M240.022 23.088C240.758 23.088 241.398 22.992 241.942 22.8C242.486 22.592 242.934 22.312 243.286 21.96C243.654 21.608 243.926 21.184 244.102 20.688C244.294 20.192 244.39 19.648 244.39 19.056C244.39 17.84 244.022 16.88 243.286 16.176C242.566 15.456 241.478 15.096 240.022 15.096C238.566 15.096 237.47 15.456 236.734 16.176C236.014 16.88 235.654 17.84 235.654 19.056C235.654 19.632 235.742 20.168 235.918 20.664C236.11 21.16 236.382 21.592 236.734 21.96C237.102 22.312 237.558 22.592 238.102 22.8C238.662 22.992 239.302 23.088 240.022 23.088ZM246.718 37.104C246.718 36.624 246.574 36.232 246.286 35.928C245.998 35.624 245.606 35.392 245.11 35.232C244.614 35.056 244.03 34.928 243.358 34.848C242.702 34.768 241.998 34.712 241.246 34.68C240.51 34.632 239.742 34.592 238.942 34.56C238.158 34.528 237.39 34.464 236.638 34.368C235.982 34.736 235.446 35.168 235.03 35.664C234.63 36.16 234.43 36.736 234.43 37.392C234.43 37.824 234.534 38.224 234.742 38.592C234.966 38.976 235.31 39.304 235.774 39.576C236.254 39.848 236.87 40.056 237.622 40.2C238.374 40.36 239.294 40.44 240.382 40.44C241.486 40.44 242.438 40.352 243.238 40.176C244.038 40.016 244.694 39.784 245.206 39.48C245.734 39.192 246.118 38.84 246.358 38.424C246.598 38.024 246.718 37.584 246.718 37.104ZM252.622 12.216V14.424C252.622 15.128 252.198 15.56 251.35 15.72L249.142 16.128C249.478 16.976 249.646 17.904 249.646 18.912C249.646 20.128 249.398 21.232 248.902 22.224C248.422 23.2 247.75 24.032 246.886 24.72C246.022 25.408 244.998 25.944 243.814 26.328C242.646 26.696 241.382 26.88 240.022 26.88C239.542 26.88 239.078 26.856 238.63 26.808C238.182 26.76 237.742 26.696 237.31 26.616C236.542 27.08 236.158 27.6 236.158 28.176C236.158 28.672 236.382 29.04 236.83 29.28C237.294 29.504 237.902 29.664 238.654 29.76C239.406 29.856 240.262 29.92 241.222 29.952C242.182 29.968 243.166 30.016 244.174 30.096C245.182 30.176 246.166 30.32 247.126 30.528C248.086 30.72 248.942 31.032 249.694 31.464C250.446 31.896 251.046 32.488 251.494 33.24C251.958 33.976 252.19 34.928 252.19 36.096C252.19 37.184 251.918 38.24 251.374 39.264C250.846 40.288 250.07 41.2 249.046 42C248.038 42.8 246.79 43.44 245.302 43.92C243.83 44.416 242.15 44.664 240.262 44.664C238.406 44.664 236.79 44.48 235.414 44.112C234.038 43.76 232.894 43.28 231.982 42.672C231.07 42.08 230.39 41.392 229.942 40.608C229.494 39.824 229.27 39.008 229.27 38.16C229.27 37.008 229.614 36.048 230.302 35.28C231.006 34.496 231.966 33.872 233.182 33.408C232.526 33.072 232.006 32.624 231.622 32.064C231.238 31.504 231.046 30.768 231.046 29.856C231.046 29.488 231.11 29.112 231.238 28.728C231.382 28.328 231.582 27.936 231.838 27.552C232.11 27.168 232.446 26.808 232.846 26.472C233.246 26.12 233.718 25.808 234.262 25.536C233.014 24.864 232.03 23.968 231.31 22.848C230.606 21.728 230.254 20.416 230.254 18.912C230.254 17.696 230.494 16.6 230.974 15.624C231.47 14.632 232.15 13.792 233.014 13.104C233.894 12.4 234.926 11.864 236.11 11.496C237.31 11.128 238.614 10.944 240.022 10.944C241.078 10.944 242.07 11.056 242.998 11.28C243.926 11.488 244.774 11.8 245.542 12.216H252.622Z" fill="#141414"/>
<path d="M266.855 10.992C268.679 10.992 270.335 11.288 271.823 11.88C273.327 12.472 274.607 13.312 275.663 14.4C276.735 15.488 277.559 16.816 278.135 18.384C278.711 19.952 278.999 21.704 278.999 23.64C278.999 25.592 278.711 27.352 278.135 28.92C277.559 30.488 276.735 31.824 275.663 32.928C274.607 34.032 273.327 34.88 271.823 35.472C270.335 36.064 268.679 36.36 266.855 36.36C265.015 36.36 263.343 36.064 261.839 35.472C260.335 34.88 259.047 34.032 257.975 32.928C256.919 31.824 256.095 30.488 255.503 28.92C254.927 27.352 254.639 25.592 254.639 23.64C254.639 21.704 254.927 19.952 255.503 18.384C256.095 16.816 256.919 15.488 257.975 14.4C259.047 13.312 260.335 12.472 261.839 11.88C263.343 11.288 265.015 10.992 266.855 10.992ZM266.855 31.8C268.903 31.8 270.415 31.112 271.391 29.736C272.383 28.36 272.879 26.344 272.879 23.688C272.879 21.032 272.383 19.008 271.391 17.616C270.415 16.224 268.903 15.528 266.855 15.528C264.775 15.528 263.231 16.232 262.223 17.64C261.231 19.032 260.735 21.048 260.735 23.688C260.735 26.328 261.231 28.344 262.223 29.736C263.231 31.112 264.775 31.8 266.855 31.8Z" fill="#141414"/>
<rect x="294" y="39" width="19" height="4" fill="#5CD17A"/>
</svg>
